<?xml version="1.0" encoding="utf-8"?>
<!-- Generator: Adobe Illustrator 23.0.2, SVG Export Plug-In . SVG Version: 6.00 Build 0)  -->
<svg version="1.1" id="Layer_1" xmlns="http://www.w3.org/2000/svg" xmlns:xlink="http://www.w3.org/1999/xlink" x="0px" y="0px"
	 viewBox="0 0 174.25 92.89" style="enable-background:new 0 0 174.25 92.89;" xml:space="preserve">
<style type="text/css">
	.st0{fill:#FFFFFF;}
	.st1{fill-rule:evenodd;clip-rule:evenodd;fill:#FFFFFF;}
	.st2{opacity:0.3;fill:#FFFFFF;}
</style>
<g>
	<g>
		<g>
			<path class="st0" d="M77.61,37.38H66.01l1.37-8.01h35.51l-1.37,8.01H89.91l-4.67,26.88v7.19H71.71L77.61,37.38z"/>
			<path class="st0" d="M115.6,37.38h-11.61l1.37-8.01h35.51l-1.37,8.01h-11.61l-4.67,26.88v7.19h-13.53L115.6,37.38z"/>
			<path class="st0" d="M138.12,50.44c1.65-12.05,10.71-21.77,22.32-21.77c7.21,0,11.54,2.97,13.81,8.01l-6.32,5.62
				c-2.06-2.59-3.71-3.85-6.94-3.85c-4.67,0-9.34,4.16-10.65,11.99c-1.3,7.82,1.85,11.92,6.53,11.92c3.23,0,5.7-1.7,8.1-3.85
				l5.7,5.74c-3.37,4.61-8.86,7.89-16.07,7.89C143,72.14,136.48,62.49,138.12,50.44z"/>
		</g>
	</g>
	<g>
		<path class="st0" d="M50.66,55.32c-1.45-0.02-2.81-0.66-4.01-1.74c-0.55-0.52-1.07-1.13-1.56-1.83c7.1-0.56,13.9-4.37,18.02-10.47
			L67.37,43C63.51,49.21,57.46,53.52,50.66,55.32z"/>
		<path class="st0" d="M66.48,22.63c-1.72-7.15-6.73-13.4-14.06-16.38C40.34,1.33,26.55,7.13,21.63,19.21
			c-0.89,2.18-1.42,4.41-1.63,6.64c-1.51,0.39-2.41-0.09-2.93-0.9c-0.02-0.04-0.05-0.08-0.07-0.12c-0.02-0.03-0.04-0.07-0.06-0.1
			c-0.83-1.57-0.53-4.02-0.53-4.02s-0.01-0.01-0.01-0.01c0.29-1.07,0.65-2.14,1.08-3.19C23.33,3.14,39.73-3.77,54.11,2.09
			c9.75,3.97,16.06,12.8,17.29,22.56L66.48,22.63z"/>
		<path class="st0" d="M16.41,20.72c0,0.01,0,0.01,0,0.02C16.4,20.73,16.41,20.72,16.41,20.72z"/>
		<path class="st0" d="M59.51,45.5l4.53,1.84c-3.64,3.89-8.3,6.63-13.37,7.97c-2.09,0.19-4.08-1.42-5.62-3.57
			C50.33,51.34,55.61,49.09,59.51,45.5z"/>
		<path class="st0" d="M27.02,11.21c-2.26,2.2-4.12,4.89-5.39,8c-0.89,2.19-1.42,4.43-1.64,6.67c-4.46,1-3.59-5.16-3.59-5.16
			s-0.01-0.01-0.01-0.01c0.29-1.07,0.65-2.14,1.08-3.19c1.25-3.07,2.98-5.79,5.07-8.13L27.02,11.21z"/>
		<path class="st1" d="M23.24,32.48c-0.62,1.86,0.29,3.84,2.04,4.43c1.75,0.59,3.66-0.45,4.28-2.31c0.62-1.86-0.29-3.84-2.04-4.43
			C25.78,29.59,23.86,30.62,23.24,32.48z"/>
		<path class="st0" d="M16.41,20.72c0,0-0.87,6.86,4.21,4.94c3.59-1.36,11.12-7.69,14.08-3.23c3.55,5.34,6.27,32.99,15.97,32.89
			c0,0-7.07,2.59-12.3-5.63c-3.5-5.5-8.2-19.54-8.2-19.54s-1.62-3.46-6.28-0.96C18.04,32.33,14.68,28.43,16.41,20.72z"/>
		<path class="st2" d="M50.66,55.32c-9.69,0.09-12.41-27.55-15.96-32.89c-2.96-4.45-10.49,1.87-14.08,3.23
			c-4.65,1.76-4.31-3.86-4.22-4.8c0.03-0.17,0.07-0.34,0.11-0.52c0,0-0.24,6.63,4.34,4.62c3.52-1.54,10.17-7.7,14.55-4.62
			c5.47,3.85,3.98,32.29,15.49,34.92C50.87,55.26,50.8,55.28,50.66,55.32z"/>
		<path class="st0" d="M16.41,20.72c0,0.01,0,0.01,0,0.02C16.4,20.73,16.41,20.72,16.41,20.72z"/>
		<path class="st0" d="M66.48,22.63C64.85,15.88,60.28,9.92,53.6,6.77l1.7-4.17c9.08,4.19,14.93,12.68,16.11,22.04L66.48,22.63z"/>
	</g>
	<path class="st0" d="M20.17,34.84c0,0,1.44,3.78,1.06,5.56c-0.38,1.77-2.72,20.3-17.36,22.63s17.02,15.04,17.02,15.04
		S5.64,70.5,6.13,67.42C6.61,64.34,30.18,58.09,20.17,34.84z"/>
	<path class="st0" d="M21.9,76.95c0,0-2.3-18.01,13.12-23.2C35.02,53.75,24.27,59.78,21.9,76.95z"/>
	<g>
		<path class="st0" d="M22.96,86.91l0.66-4.12h-1.3l0.16-1.02h1.3l0.34-2.17h1.18l-0.34,2.17h1.97l-0.16,1.02H24.8l-0.67,4.2
			c-0.21,1.29,0.07,1.79,0.93,1.79c0.27,0,0.72-0.12,0.96-0.22l-0.1,0.75c-0.31,0.27-0.79,0.42-1.27,0.42
			C23.19,89.72,22.69,88.57,22.96,86.91z"/>
		<path class="st0" d="M28.71,85.61c-0.34,1.51,0.37,3.05,2.14,3.05c0.79,0,1.46-0.27,2.11-0.81l0.49,0.73
			c-0.67,0.69-1.73,1.15-2.78,1.15c-2.24,0-3.45-1.82-3.15-4.03c0.3-2.26,1.97-4.09,3.94-4.09c1.87,0,3.06,1.54,2.54,4H28.71z
			 M31.43,82.68c-0.93,0-1.88,0.55-2.48,1.99h4.02C33.17,83.48,32.6,82.68,31.43,82.68z"/>
		<path class="st0" d="M35.07,91.5l0.63-0.67c0.55,0.6,1.11,1.02,2.12,1.02c1.09,0,2.06-0.78,2.38-2.56l0.13-0.75
			c-0.49,0.64-1.33,1.2-2.3,1.2c-1.81,0-2.88-1.82-2.59-4.06c0.3-2.24,1.91-4.06,3.72-4.06c0.97,0,1.79,0.54,2.15,1.34l0.61-1.18
			h0.64l-1.17,7.35c-0.43,2.38-1.73,3.75-3.57,3.75C36.59,92.88,35.53,92.23,35.07,91.5z M40.83,85.67
			c0.27-1.69-0.43-2.99-1.63-2.99c-1.21,0-2.3,1.3-2.57,2.99c-0.27,1.69,0.42,2.99,1.63,2.99C39.46,88.66,40.56,87.36,40.83,85.67z"
			/>
		<path class="st0" d="M44.99,85.61c-0.34,1.51,0.37,3.05,2.14,3.05c0.79,0,1.46-0.27,2.11-0.81l0.49,0.73
			c-0.67,0.69-1.73,1.15-2.78,1.15c-2.24,0-3.45-1.82-3.15-4.03c0.3-2.26,1.97-4.09,3.94-4.09c1.87,0,3.06,1.54,2.54,4H44.99z
			 M47.71,82.68c-0.93,0-1.88,0.55-2.48,1.99h4.02C49.44,83.48,48.87,82.68,47.71,82.68z"/>
		<path class="st0" d="M53.15,79.07v-1.12h1.34l-1.66,10.5v1.12h-1.34L53.15,79.07z"/>
		<path class="st0" d="M54.64,88.9l0.39-0.94c0.75,0.58,1.54,0.78,2.14,0.78c0.82,0,1.42-0.36,1.49-1.12
			c0.06-0.66-0.25-1.03-1.52-1.58c-1.2-0.52-1.73-1.32-1.64-2.27c0.13-1.33,1.26-2.2,2.63-2.2c0.81,0,1.63,0.25,2.27,0.78
			l-0.36,0.94c-0.51-0.42-1.3-0.7-1.88-0.7c-0.99,0-1.39,0.48-1.45,1.06c-0.06,0.55,0.3,1.06,1,1.35c1.15,0.48,2.32,1.12,2.17,2.48
			c-0.18,1.66-1.34,2.3-2.73,2.3C56.34,89.77,55.33,89.48,54.64,88.9z"/>
		<path class="st0" d="M62.77,85.61c-0.34,1.51,0.37,3.05,2.14,3.05c0.79,0,1.46-0.27,2.11-0.81l0.49,0.73
			c-0.67,0.69-1.73,1.15-2.78,1.15c-2.24,0-3.45-1.82-3.15-4.03c0.3-2.26,1.97-4.09,3.94-4.09c1.87,0,3.06,1.54,2.54,4H62.77z
			 M65.49,82.68c-0.93,0-1.88,0.55-2.48,1.99h4.02C67.22,83.48,66.65,82.68,65.49,82.68z"/>
		<path class="st0" d="M73.29,86.91l0.66-4.12h-1.3l0.16-1.02h1.3l0.34-2.17h1.18l-0.34,2.17h1.97l-0.16,1.02h-1.97l-0.67,4.2
			c-0.21,1.29,0.07,1.79,0.93,1.79c0.27,0,0.72-0.12,0.96-0.22l-0.1,0.75c-0.31,0.27-0.79,0.42-1.27,0.42
			C73.51,89.72,73.02,88.57,73.29,86.91z"/>
		<path class="st0" d="M83.91,89.57h-0.82l-0.15-1.18c-0.6,0.81-1.54,1.34-2.51,1.34c-1.81,0-2.88-1.82-2.59-4.06
			c0.3-2.24,1.91-4.06,3.72-4.06c0.97,0,1.79,0.54,2.15,1.34l0.61-1.18h0.64l-1.06,6.68V89.57z M83.24,85.67
			c0.27-1.69-0.43-2.99-1.63-2.99c-1.21,0-2.3,1.3-2.57,2.99c-0.27,1.69,0.42,2.99,1.63,2.99C81.87,88.66,82.97,87.36,83.24,85.67z"
			/>
		<path class="st0" d="M91.8,79.22c-0.27-0.15-0.63-0.31-1.03-0.31c-1,0-1.54,0.6-1.75,2.05l-0.12,0.82h1.94l-0.16,1.02h-1.94
			l-1.6,10.1h-1.17l1.6-10.1h-1.32l0.16-1.02h1.31l0.12-0.82c0.27-1.88,1.34-3,2.67-3c0.72,0,1.27,0.15,1.61,0.4L91.8,79.22z"/>
		<path class="st0" d="M92.13,85.61c-0.34,1.51,0.37,3.05,2.14,3.05c0.79,0,1.46-0.27,2.11-0.81l0.49,0.73
			c-0.67,0.69-1.73,1.15-2.78,1.15c-2.24,0-3.45-1.82-3.15-4.03c0.3-2.26,1.97-4.09,3.94-4.09c1.87,0,3.06,1.54,2.54,4H92.13z
			 M94.85,82.68c-0.93,0-1.88,0.55-2.48,1.99h4.02C96.58,83.48,96.02,82.68,94.85,82.68z"/>
		<path class="st0" d="M100.29,79.07v-1.12h1.34l-1.66,10.5v1.12h-1.34L100.29,79.07z"/>
		<path class="st0" d="M102.83,86.91l0.66-4.12h-1.3l0.16-1.02h1.3l0.34-2.17h1.18l-0.34,2.17h1.97l-0.16,1.02h-1.97l-0.67,4.2
			c-0.21,1.29,0.07,1.79,0.93,1.79c0.27,0,0.72-0.12,0.96-0.22l-0.1,0.75c-0.31,0.27-0.79,0.42-1.27,0.42
			C103.06,89.72,102.56,88.57,102.83,86.91z"/>
		<path class="st0" d="M108.58,85.61c-0.34,1.51,0.37,3.05,2.14,3.05c0.79,0,1.46-0.27,2.11-0.81l0.49,0.73
			c-0.67,0.69-1.73,1.15-2.78,1.15c-2.24,0-3.45-1.82-3.15-4.03c0.3-2.26,1.97-4.09,3.94-4.09c1.87,0,3.06,1.54,2.54,4H108.58z
			 M111.3,82.68c-0.93,0-1.88,0.55-2.48,1.99h4.02C113.04,83.48,112.47,82.68,111.3,82.68z"/>
		<path class="st0" d="M116.14,81.77h0.82l0.19,1.14c0.61-0.78,1.57-1.3,2.51-1.3c1.66,0,2.5,1.15,2.15,3.17l-0.58,3.68v1.12h-1.34
			l0.76-4.8c0.22-1.42-0.22-2.09-1.31-2.09c-1,0-2.15,0.97-2.32,1.99l-0.78,4.9h-1.17l1.06-6.68V81.77z"/>
		<path class="st0" d="M124.36,81.77h0.82l0.19,1.14c0.61-0.78,1.57-1.3,2.51-1.3c1.66,0,2.5,1.15,2.15,3.17l-0.58,3.68v1.12h-1.34
			l0.76-4.8c0.22-1.42-0.22-2.09-1.31-2.09c-1,0-2.15,0.97-2.32,1.99l-0.78,4.9h-1.17l1.06-6.68V81.77z"/>
		<path class="st0" d="M132.58,81.77h1.34l-1.06,6.68v1.12h-1.34l1.06-6.68V81.77z M134.52,79.07c-0.04,0.42-0.43,0.76-0.85,0.76
			c-0.42,0-0.75-0.34-0.7-0.76c0.05-0.42,0.43-0.78,0.85-0.78C134.24,78.29,134.57,78.65,134.52,79.07z"/>
		<path class="st0" d="M134.67,88.9l0.39-0.94c0.75,0.58,1.54,0.78,2.14,0.78c0.82,0,1.42-0.36,1.49-1.12
			c0.06-0.66-0.25-1.03-1.52-1.58c-1.2-0.52-1.73-1.32-1.64-2.27c0.13-1.33,1.26-2.2,2.63-2.2c0.81,0,1.63,0.25,2.27,0.78
			l-0.36,0.94c-0.51-0.42-1.3-0.7-1.88-0.7c-0.99,0-1.39,0.48-1.45,1.06c-0.06,0.55,0.3,1.06,1,1.35c1.15,0.48,2.32,1.12,2.17,2.48
			c-0.18,1.66-1.34,2.3-2.73,2.3C136.38,89.77,135.36,89.48,134.67,88.9z"/>
		<path class="st0" d="M144.83,85.67c0.3-2.24,2.02-4.06,3.89-4.06c1.09,0,1.93,0.45,2.36,1.15l-0.57,0.76
			c-0.46-0.52-0.91-0.84-1.75-0.84c-1.15,0-2.44,1.12-2.73,2.99c-0.3,1.85,0.61,2.99,1.93,2.99c0.84,0,1.24-0.31,1.88-0.84l0.4,0.76
			c-0.64,0.72-1.6,1.15-2.54,1.15C145.69,89.74,144.54,87.91,144.83,85.67z"/>
		<path class="st0" d="M153.37,79.07v-1.12h1.34l-1.66,10.5v1.12h-1.34L153.37,79.07z"/>
		<path class="st0" d="M160.26,88.44c-0.61,0.78-1.57,1.3-2.51,1.3c-1.66,0-2.47-1.15-2.15-3.17l0.58-3.68v-1.12h1.34l-0.76,4.8
			c-0.22,1.42,0.22,2.09,1.32,2.09c1,0,2.15-0.97,2.32-1.99l0.78-4.9h1.17l-1.06,6.68v1.12h-0.82L160.26,88.44z"/>
		<path class="st0" d="M164.99,77.95h1.34l-0.76,4.86c0.46-0.63,1.33-1.2,2.3-1.2c1.81,0,2.9,1.82,2.59,4.06
			c-0.31,2.24-1.91,4.06-3.72,4.06c-0.97,0-1.79-0.54-2.15-1.34l-0.61,1.18h-0.64l1.66-10.5V77.95z M165.07,85.67
			c-0.27,1.69,0.43,2.99,1.63,2.99c1.21,0,2.3-1.3,2.57-2.99c0.27-1.69-0.42-2.99-1.63-2.99C166.44,82.68,165.34,83.98,165.07,85.67
			z"/>
	</g>
</g>
</svg>
